# xmcd CD database file
#
# Track frame offsets:
#	150
#	18672
#	35092
#	71067
#	86072
#	102542
#	117385
#	137272
#	154582
#	177335
#	180592
#	199807
#	211412
#	231742
#
# Disc length: 3374 seconds
#
# Revision: 0
# Processed by: cddbd v1.5.1PL0 Copyright (c) Steve Scherf et al.
# Submitted via: CDex 1.51
#
DISCID=ce0d2c0e
DTITLE=ACOUSTIC CLUB - ACOUSTIC X'MAS
DYEAR=1987
DGENRE=Jazz
TTITLE0=WHITE CHRISTMAS
TTITLE1=CHRISTMAS SWING
TTITLE2=WINTER WONDER LAND
TTITLE3=NAVIDAD
TTITLE4=IN THE STILL OF THE NIGHT
TTITLE5=THE DREAM OF A FIR
TTITLE6=MY FAVORITE THINGS
TTITLE7=STELLA BY STARLIGHT
TTITLE8=MOONLIGHT IN VERMONT
TTITLE9=O DU FROHLICHE
TTITLE10=LITTLE DRUMMER BOY
TTITLE11=CHRISTMAS
TTITLE12=AVE MARIA
TTITLE13=WHEN YOU WISH UPON A STAR
EXTD=YEAR: 1987
EXTT0=
EXTT1=
EXTT2=
EXTT3=
EXTT4=
EXTT5=
EXTT6=
EXTT7=
EXTT8=
EXTT9=
EXTT10=
EXTT11=
EXTT12=
EXTT13=
PLAYORDER=
